<?xml version="1.0" standalone="no"?>
<!DOCTYPE svg PUBLIC "-//W3C//DTD SVG 20010904//EN"
 "http://www.w3.org/TR/2001/REC-SVG-20010904/DTD/svg10.dtd">
<svg version="1.0" xmlns="http://www.w3.org/2000/svg"
 width="512.000000pt" height="512.000000pt" viewBox="0 0 512.000000 512.000000"
 preserveAspectRatio="xMidYMid meet">
<metadata>
Created by potrace 1.14, written by Peter Selinger 2001-2017
</metadata>
<g transform="translate(0.000000,512.000000) scale(0.100000,-0.100000)"
fill="#000000" stroke="none">
<path d="M985 4339 c-130 -46 -227 -153 -255 -281 -10 -45 -15 -2263 -5 -2353
4 -40 11 -79 21 -125 3 -14 7 -35 10 -47 7 -35 54 -164 76 -208 140 -283 443
-484 828 -550 l35 -6 -47 46 c-55 56 -102 140 -117 213 -8 37 -11 492 -11
1526 0 1630 4 1524 -65 1631 -69 108 -176 166 -320 172 -73 3 -101 0 -150 -18z
m277 -88 c60 -29 119 -87 149 -148 l24 -48 5 -1520 c5 -1513 5 -1520 26 -1578
l21 -57 -21 6 c-12 3 -61 23 -110 45 -304 132 -467 339 -542 689 -5 19 -10
562 -11 1205 -4 1296 -7 1223 60 1311 38 50 83 83 146 106 65 25 190 19 253
-11z"/>
<path d="M3885 4346 c-144 -41 -255 -165 -280 -311 -2 -16 -5 -691 -5 -1500 0
-1209 -3 -1479 -14 -1521 -19 -74 -64 -150 -116 -202 l-45 -44 40 7 c240 40
494 159 639 301 113 111 183 223 236 382 62 184 60 155 60 1407 0 627 -3 1154
-5 1170 -16 89 -70 184 -135 235 -74 59 -145 84 -245 86 -49 1 -108 -3 -130
-10z m258 -95 c60 -29 118 -88 149 -149 l23 -47 2 -1170 c1 -663 -1 -1187 -7
-1210 -4 -22 -11 -56 -14 -75 -14 -94 -79 -252 -137 -337 -100 -146 -260 -265
-453 -337 -37 -14 -69 -26 -71 -26 -1 0 8 26 19 58 21 56 21 73 24 882 1 454
3 1138 5 1520 l2 695 22 45 c39 77 97 130 178 163 61 24 196 18 258 -12z"/>
<path d="M2335 2674 c-150 -32 -301 -113 -409 -219 -98 -96 -102 -101 -221
-306 l-105 -180 0 -454 c1 -390 3 -461 17 -502 31 -92 93 -163 177 -204 l59
-28 50 87 c69 123 67 119 352 612 142 245 309 535 372 645 153 266 178 298
271 347 23 13 42 27 42 31 0 5 -24 32 -52 61 -92 91 -189 123 -376 124 -60 1
-138 -6 -177 -14z m338 -80 c58 -14 137 -52 137 -67 0 -4 -24 -31 -54 -60 -48
-47 -101 -128 -223 -345 -13 -23 -53 -93 -89 -154 -35 -61 -64 -115 -64 -119
0 -5 -4 -9 -10 -9 -5 0 -10 -4 -10 -9 0 -5 -31 -62 -68 -127 -38 -66 -156
-270 -262 -454 -106 -184 -199 -343 -205 -353 -11 -16 -17 -13 -62 32 -83 82
-83 84 -83 586 l0 433 95 162 c98 167 140 227 210 293 99 96 254 173 393 197
71 12 229 9 295 -6z"/>
<path d="M2945 2406 c-62 -29 -110 -81 -172 -188 -26 -45 -53 -92 -60 -103 -7
-11 -16 -27 -20 -35 -4 -8 -49 -86 -100 -174 l-93 -158 67 -87 c37 -47 143
-185 237 -306 93 -121 196 -254 228 -295 32 -41 91 -119 131 -172 39 -53 79
-100 88 -103 27 -9 125 44 170 92 22 24 53 70 67 101 l27 57 3 359 3 359 -62
81 c-204 264 -443 573 -453 583 -9 10 -22 7 -61 -11z m39 -90 c6 -8 43 -56 83
-108 39 -51 140 -181 223 -288 l151 -195 -3 -340 c-3 -335 -3 -341 -26 -384
-27 -49 -52 -78 -99 -110 l-32 -22 -137 178 c-76 98 -158 205 -183 238 -25 33
-48 62 -51 65 -24 22 -311 402 -308 408 3 7 153 270 178 312 5 8 33 56 62 105
47 81 106 155 124 155 4 0 12 -6 18 -14z"/>
</g>
</svg>
